<svg width="39" height="44" viewBox="0 0 39 44" fill="none" xmlns="http://www.w3.org/2000/svg">
<path d="M22.3453 44C16.4702 44.0119 10.8298 41.7303 6.66001 37.6551L6.5751 37.5715C4.49124 35.53 2.83761 33.1032 1.70924 30.4305C0.580873 27.7579 0 24.892 0 21.9976C0 19.1031 0.580873 16.2373 1.70924 13.5646C2.83761 10.8919 4.49124 8.46509 6.5751 6.42362L6.65554 6.34441C10.854 2.25836 16.526 -0.022918 22.4292 0.000173609C28.3325 0.0232652 33.9858 2.34885 38.1512 6.46762L38.2317 6.54682C38.4479 6.75975 38.6195 7.01253 38.7365 7.29073C38.8535 7.56893 38.9138 7.86711 38.9138 8.16823C38.9138 8.46936 38.8535 8.76753 38.7365 9.04574C38.6195 9.32394 38.4479 9.57672 38.2317 9.78965C38.0154 10.0026 37.7587 10.1715 37.4761 10.2867C37.1936 10.4019 36.8908 10.4613 36.5849 10.4613C36.2791 10.4613 35.9763 10.4019 35.6937 10.2867C35.4112 10.1715 35.1544 10.0026 34.9382 9.78965L34.8533 9.70605C31.5591 6.4462 27.087 4.60472 22.4166 4.58492C17.7462 4.56513 13.2582 6.36864 9.93559 9.60044L9.86409 9.66645C8.21677 11.282 6.90967 13.202 6.01778 15.3162C5.12589 17.4304 4.66677 19.6972 4.66677 21.9866C4.66677 24.2759 5.12589 26.5427 6.01778 28.6569C6.90967 30.7711 8.21677 32.6911 9.86409 34.3067L9.95794 34.3991C13.284 37.6264 17.7729 39.4253 22.4426 39.4022C27.1123 39.3791 31.5826 37.5359 34.8756 34.2759L34.9561 34.1967C35.3904 33.7655 35.981 33.5218 36.5978 33.5194C37.2146 33.5169 37.8071 33.7558 38.2451 34.1835C38.683 34.6112 38.9304 35.1926 38.9329 35.7999C38.9355 36.4073 38.6928 36.9907 38.2585 37.4219L38.178 37.5055C36.1084 39.568 33.6427 41.2044 30.9245 42.3193C28.2063 43.4343 25.2899 44.0056 22.3453 44Z" fill="#F36E49"/>
<path d="M38.924 19.7075H29.1643V14.335C29.1643 14.0729 29.1118 13.8133 29.0098 13.5712C28.9078 13.3291 28.7583 13.1092 28.5698 12.924C28.3813 12.7389 28.1577 12.5922 27.9115 12.4923C27.6654 12.3924 27.4017 12.3412 27.1355 12.3418H19.9855V14.8674H14.1761C13.7424 14.8674 13.3264 15.0371 13.0196 15.3391C12.7129 15.6411 12.5406 16.0507 12.5406 16.4778C12.5406 16.905 12.7129 17.3146 13.0196 17.6166C13.3264 17.9186 13.7424 18.0883 14.1761 18.0883H19.9855V25.9115H14.1761C13.7424 25.9115 13.3264 26.0812 13.0196 26.3832C12.7129 26.6852 12.5406 27.0948 12.5406 27.5219C12.5406 27.9491 12.7129 28.3587 13.0196 28.6607C13.3264 28.9627 13.7424 29.1324 14.1761 29.1324H19.9855V31.68H27.1355C27.4017 31.6806 27.6654 31.6294 27.9115 31.5295C28.1577 31.4296 28.3813 31.2829 28.5698 31.0977C28.7583 30.9126 28.9078 30.6927 29.0098 30.4506C29.1118 30.2084 29.1643 29.9489 29.1643 29.6868V24.2923H38.924V19.7075Z" fill="#0FA958"/>
</svg>
