<svg width="27" height="20" viewBox="0 0 27 20" fill="none" xmlns="http://www.w3.org/2000/svg">
<path d="M26.924 7.70747L17.1643 7.70747V2.33502C17.1643 2.0729 17.1118 1.81335 17.0098 1.57123C16.9078 1.32912 16.7583 1.10919 16.5698 0.924044C16.3813 0.738899 16.1577 0.592172 15.9115 0.492263C15.6654 0.392353 15.4017 0.341223 15.1355 0.341802L7.98551 0.341802V2.86743L2.17615 2.86743C1.74237 2.86743 1.32636 3.03709 1.01963 3.3391C0.712905 3.64112 0.540588 4.05073 0.540588 4.47784C0.540588 4.90495 0.712905 5.31456 1.01963 5.61658C1.32636 5.91859 1.74237 6.08826 2.17615 6.08826H7.98551L7.98551 13.9115H2.17615C1.74237 13.9115 1.32636 14.0812 1.01963 14.3832C0.712905 14.6852 0.540588 15.0948 0.540588 15.5219C0.540588 15.9491 0.712905 16.3587 1.01963 16.6607C1.32636 16.9627 1.74237 17.1324 2.17615 17.1324H7.98551V19.68H15.1355C15.4017 19.6806 15.6654 19.6294 15.9115 19.5295C16.1577 19.4296 16.3813 19.2829 16.5698 19.0977C16.7583 18.9126 16.9078 18.6927 17.0098 18.4506C17.1118 18.2084 17.1643 17.9489 17.1643 17.6868V12.2923H26.924V7.70747Z" fill="#0FA958"/>
</svg>
